<?xml version="1.0" encoding="utf-8" ?>
<svg xmlns="http://www.w3.org/2000/svg" xmlns:xlink="http://www.w3.org/1999/xlink" width="1023" height="1024">
	<clipPath id="cl_3">
		<rect width="1024" height="1024" rx="80" ry="80"/>
	</clipPath>
	<g clip-path="url(#cl_3)">
		<path fill="#FCFCFA" d="M0 0L1024 0L1024 1024L0 1024L0 0Z"/>
		<path fill="#721D2A" d="M495.707 160.212Q499.892 160.014 504.08 159.916Q508.268 159.818 512.458 159.819Q516.647 159.821 520.835 159.922Q525.023 160.024 529.208 160.225Q533.392 160.426 537.571 160.727Q541.75 161.028 545.92 161.428Q550.09 161.829 554.25 162.328Q558.409 162.828 562.555 163.427Q566.702 164.025 570.833 164.723Q574.964 165.42 579.077 166.216Q583.19 167.011 587.283 167.905Q591.376 168.798 595.447 169.789Q599.517 170.779 603.563 171.867Q607.609 172.954 611.628 174.137Q615.647 175.321 619.636 176.6Q623.625 177.879 627.583 179.252Q631.541 180.626 635.465 182.094Q639.389 183.561 643.277 185.122Q647.165 186.682 651.014 188.335Q654.864 189.988 658.673 191.732Q662.482 193.476 666.248 195.311Q670.015 197.145 673.736 199.069Q677.458 200.993 681.133 203.004Q684.807 205.016 688.433 207.115Q692.059 209.214 695.634 211.398Q699.208 213.583 702.73 215.852Q706.252 218.122 709.718 220.474Q713.185 222.826 716.594 225.261Q720.004 227.695 723.354 230.21Q726.705 232.725 729.994 235.319Q733.284 237.914 736.511 240.585Q739.738 243.257 742.9 246.005Q745.516 248.282 748.086 250.61Q750.656 252.939 753.179 255.318Q755.702 257.696 758.178 260.125Q760.654 262.553 763.081 265.03Q765.508 267.507 767.886 270.032Q770.263 272.556 772.59 275.127Q774.917 277.698 777.193 280.315Q779.469 282.932 781.692 285.593Q783.915 288.255 786.086 290.96Q788.256 293.664 790.372 296.412Q792.488 299.159 794.549 301.948Q796.611 304.737 798.617 307.566Q800.622 310.395 802.571 313.263Q804.521 316.131 806.413 319.037Q808.305 321.944 810.139 324.887Q811.973 327.83 813.748 330.809Q815.524 333.788 817.24 336.802Q818.956 339.815 820.612 342.862Q822.268 345.909 823.863 348.988Q825.458 352.067 826.992 355.177Q828.526 358.288 829.998 361.428Q831.47 364.568 832.88 367.736Q834.289 370.905 835.635 374.1Q836.982 377.296 838.265 380.518Q839.548 383.74 840.766 386.987Q841.985 390.233 843.139 393.503Q844.294 396.773 845.383 400.066Q846.472 403.358 847.496 406.672Q848.52 409.985 849.477 413.318Q850.435 416.651 851.327 420.002Q852.219 423.353 853.044 426.722Q853.869 430.09 854.627 433.474C859.432 455.127 861.998 477.605 863.375 499.737C864.388 516.011 863.51 532.343 861.872 548.544Q861.552 551.897 861.166 555.242Q860.78 558.588 860.328 561.925Q859.877 565.263 859.361 568.591Q858.844 571.919 858.263 575.236Q857.681 578.554 857.035 581.859Q856.389 585.164 855.678 588.456Q854.968 591.748 854.193 595.026Q853.418 598.303 852.579 601.565Q851.74 604.827 850.837 608.071Q849.935 611.316 848.969 614.542Q848.003 617.769 846.974 620.976Q845.946 624.183 844.855 627.369Q843.763 630.555 842.61 633.719Q841.457 636.883 840.242 640.025Q839.027 643.166 837.751 646.282Q836.474 649.399 835.138 652.49Q833.801 655.581 832.404 658.646Q831.007 661.71 829.55 664.747Q828.093 667.783 826.577 670.791Q825.062 673.798 823.487 676.775Q821.913 679.753 820.281 682.699Q818.648 685.644 816.959 688.558Q815.269 691.471 813.523 694.351Q811.777 697.231 809.975 700.076Q808.173 702.921 806.315 705.73Q804.458 708.54 802.546 711.312Q800.634 714.085 798.668 716.819Q796.702 719.554 794.683 722.249Q792.664 724.945 790.593 727.601Q788.521 730.256 786.398 732.871Q784.276 735.485 782.102 738.058Q779.928 740.63 777.705 743.16C771.032 750.703 763.703 757.628 756.464 764.618C692.657 826.228 617.609 857.852 529.376 863.14Q528.356 863.241 527.332 863.281Q523.015 863.486 518.694 863.585Q514.374 863.684 510.052 863.676Q505.73 863.669 501.41 863.555Q497.089 863.441 492.773 863.221Q488.457 863 484.148 862.674Q479.838 862.348 475.538 861.915Q471.238 861.483 466.95 860.945Q462.662 860.407 458.388 859.764Q454.114 859.12 449.858 858.372Q445.601 857.624 441.364 856.771Q437.128 855.918 432.913 854.961Q428.699 854.004 424.509 852.944Q420.319 851.884 416.157 850.72Q411.994 849.557 407.862 848.292Q403.729 847.027 399.629 845.661Q395.529 844.294 391.464 842.827Q387.399 841.36 383.371 839.794Q379.343 838.227 375.355 836.562Q371.367 834.897 367.421 833.134Q363.475 831.371 359.574 829.512Q355.672 827.652 351.818 825.697Q347.963 823.742 344.158 821.693Q340.353 819.644 336.6 817.502Q332.846 815.36 329.146 813.126Q325.447 810.892 321.803 808.568Q318.159 806.244 314.574 803.831Q310.989 801.417 307.464 798.917Q303.939 796.416 300.477 793.829Q297.015 791.242 293.617 788.571Q290.22 785.9 286.889 783.146Q283.558 780.392 280.296 777.557Q277.034 774.722 273.843 771.808Q270.673 768.918 267.575 765.95Q264.477 762.983 261.453 759.94Q258.429 756.897 255.481 753.781Q252.533 750.665 249.662 747.477Q246.792 744.289 244 741.031Q241.209 737.773 238.499 734.448Q235.789 731.122 233.161 727.731Q230.534 724.34 227.991 720.885Q225.448 717.431 222.99 713.914Q220.533 710.398 218.163 706.822Q215.793 703.247 213.511 699.614Q211.23 695.981 209.039 692.292Q206.848 688.604 204.748 684.863Q202.648 681.123 200.641 677.331Q198.634 673.54 196.721 669.7Q194.808 665.86 192.99 661.975Q191.172 658.089 189.451 654.16Q187.729 650.231 186.104 646.26Q184.48 642.29 182.954 638.281Q181.427 634.271 180 630.226Q178.573 626.18 177.246 622.101Q175.919 618.021 174.693 613.91Q173.467 609.799 172.342 605.66Q171.217 601.52 170.195 597.354Q169.172 593.187 168.253 588.997Q167.333 584.807 166.517 580.595Q165.701 576.384 164.989 572.153Q164.277 567.923 163.669 563.676Q163.061 559.43 162.558 555.17Q162.055 550.909 161.657 546.638Q161.259 542.366 160.966 538.087Q160.673 533.807 160.486 529.521Q160.271 525.196 160.163 520.868Q160.055 516.539 160.053 512.209Q160.051 507.879 160.155 503.551Q160.259 499.222 160.47 494.897Q160.68 490.572 160.997 486.254Q161.313 481.936 161.736 477.626Q162.158 473.317 162.686 469.019Q163.214 464.722 163.848 460.438Q164.481 456.155 165.22 451.889Q165.958 447.622 166.801 443.375Q167.644 439.128 168.591 434.903Q169.538 430.678 170.588 426.477Q171.638 422.276 172.792 418.103Q173.945 413.929 175.2 409.785Q176.455 405.641 177.812 401.529Q179.168 397.417 180.625 393.34Q182.082 389.262 183.639 385.222Q185.196 381.182 186.851 377.181Q188.507 373.18 190.26 369.22Q192.013 365.261 193.863 361.346Q195.713 357.432 197.658 353.563Q199.603 349.695 201.643 345.875Q203.683 342.056 205.816 338.288Q207.949 334.52 210.173 330.805Q212.398 327.09 214.713 323.431Q217.029 319.772 219.433 316.171Q221.837 312.57 224.329 309.029Q226.821 305.488 229.399 302.01Q231.978 298.531 234.64 295.117Q237.303 291.702 240.049 288.354Q242.795 285.006 245.622 281.727Q248.449 278.447 251.356 275.238Q254.257 272.02 257.238 268.874Q260.218 265.729 263.275 262.658Q266.333 259.588 269.466 256.594Q272.598 253.601 275.805 250.686Q279.011 247.771 282.288 244.936Q285.566 242.102 288.912 239.35Q292.259 236.597 295.673 233.929Q299.087 231.261 302.567 228.678Q306.046 226.095 309.588 223.6Q313.131 221.104 316.734 218.697Q320.337 216.29 323.999 213.974Q327.661 211.657 331.379 209.432Q335.097 207.207 338.869 205.075Q342.641 202.943 346.466 200.905Q350.29 198.867 354.163 196.925Q358.036 194.982 361.957 193.137Q365.877 191.291 369.842 189.544Q373.807 187.796 377.815 186.147Q381.822 184.499 385.869 182.95Q389.916 181.401 394 179.954Q398.084 178.506 402.203 177.16Q406.321 175.814 410.472 174.571Q414.623 173.327 418.804 172.187Q422.984 171.048 427.192 170.012Q431.399 168.976 435.631 168.045Q439.863 167.114 444.117 166.288Q448.371 165.463 452.644 164.743Q456.917 164.023 461.206 163.41Q465.495 162.796 469.799 162.289Q474.102 161.782 478.417 161.382Q482.731 160.983 487.055 160.69Q491.378 160.397 495.707 160.212Z"/>
		<path fill="#FCFCFA" d="M271.449 632.441L311.599 632.427C311.729 636.833 311.705 641.25 311.739 645.659L298.071 645.658L298.064 705.75L298.076 720.129L285.526 720.075L285.444 645.483L271.44 645.518L271.449 632.441Z"/>
		<path fill="#FCFCFA" d="M413.44 631.958C421.586 631.66 430.222 631.198 437.903 634.398Q438.412 634.605 438.909 634.837Q439.407 635.069 439.892 635.326Q440.378 635.582 440.85 635.863Q441.321 636.143 441.779 636.447Q442.236 636.751 442.678 637.077Q443.12 637.403 443.544 637.751Q443.969 638.099 444.376 638.467Q444.783 638.836 445.171 639.224Q445.559 639.613 445.927 640.02Q446.295 640.427 446.643 640.853Q446.99 641.278 447.316 641.72Q447.641 642.162 447.945 642.62Q448.248 643.077 448.528 643.55Q448.808 644.022 449.064 644.508Q449.32 644.993 449.551 645.491Q449.783 645.989 449.989 646.498C452.497 652.624 452.676 660.205 449.996 666.303C447.674 671.584 443.481 675.439 438.096 677.405C443.846 691.505 451.635 704.951 456.506 719.395C452.309 719.478 448.104 719.4 443.906 719.377C442.297 716.741 441.069 713.93 439.789 711.125C436.543 702.819 430.442 688.28 425.963 681.014L425.943 719.084L413.499 719.28L413.44 631.958Z"/>
		<path fill="#721D2A" d="M426.405 644.331C429.268 644.862 432.191 645.169 434.546 647.032C437.416 649.304 439.2 652.589 439.4 656.258C439.609 660.097 438.052 663.41 435.47 666.132C432.614 668.041 429.467 668.813 426.195 669.673L426.405 644.331Z"/>
		<path fill="#FCFCFA" d="M354.489 631.098Q355.566 630.96 356.65 630.906Q357.734 630.852 358.819 630.883Q359.904 630.914 360.984 631.029Q362.063 631.144 363.13 631.344Q364.197 631.543 365.245 631.825Q366.294 632.107 367.317 632.47Q368.34 632.833 369.331 633.275Q370.323 633.716 371.277 634.234C379.774 638.762 384.581 646.557 387.342 655.543C392.103 671.042 391.601 690.48 383.849 704.968C379.221 713.616 373.009 718.389 363.653 721.179C356.779 722.053 350.28 721.22 344.242 717.51C335.645 712.227 330.867 702.595 328.603 693.055C325.059 678.125 326.387 658.155 334.664 644.887C339.396 637.301 345.858 633.165 354.489 631.098Z"/>
		<path fill="#721D2A" d="M357.005 644.124C360.679 644.127 363.954 644.486 367.029 646.658C372.351 650.418 374.539 657.164 375.613 663.316C377.638 674.92 377.551 692.737 370.224 702.671C367.369 706.541 364.386 708.046 359.731 708.758C356.309 708.948 353.639 708.653 350.75 706.663C344.611 702.434 342.188 694.679 341.027 687.656C339.184 676.519 339.259 659.885 346.324 650.388C349.193 646.53 352.321 644.856 357.005 644.124Z"/>
		<path fill="#FCFCFA" d="M191.021 616.08C189.378 608.62 186.768 601.415 184.887 594.013C181.947 582.443 180.028 570.511 178.397 558.696Q177.883 554.953 177.453 551.2Q177.023 547.447 176.676 543.685Q176.33 539.924 176.067 536.155Q175.805 532.386 175.626 528.613Q175.448 524.839 175.353 521.063Q175.259 517.286 175.249 513.509Q175.239 509.731 175.313 505.954Q175.387 502.177 175.546 498.402Q175.704 494.628 175.947 490.858Q176.189 487.088 176.516 483.325Q176.842 479.561 177.252 475.806Q177.663 472.05 178.157 468.305Q178.65 464.56 179.228 460.826Q179.805 457.093 180.465 453.374Q181.126 449.654 181.869 445.95Q182.612 442.246 183.438 438.56Q184.263 434.873 185.171 431.206Q186.078 427.539 187.067 423.893Q188.056 420.247 189.126 416.624Q190.197 413.001 191.347 409.403Q192.498 405.805 193.728 402.233Q194.959 398.661 196.269 395.118Q197.579 391.575 198.967 388.061Q200.356 384.548 201.822 381.067Q203.289 377.585 204.832 374.137Q206.376 370.69 207.997 367.277Q209.617 363.864 211.313 360.489Q213.009 357.113 214.779 353.776Q216.55 350.439 218.395 347.142Q220.24 343.846 222.158 340.591Q224.075 337.336 226.065 334.125Q228.055 330.914 230.116 327.748Q235.736 319.08 241.902 310.792Q248.068 302.504 254.756 294.63Q261.443 286.757 268.624 279.331Q275.805 271.904 283.449 264.956Q287.625 261.059 291.931 257.307Q296.237 253.554 300.668 249.95Q305.099 246.346 309.65 242.895Q314.201 239.443 318.867 236.149Q323.533 232.854 328.308 229.72Q333.083 226.585 337.961 223.615Q342.84 220.645 347.817 217.842Q352.794 215.04 357.863 212.408Q362.932 209.776 368.088 207.318Q373.243 204.859 378.48 202.578Q383.716 200.296 389.027 198.194Q394.338 196.092 399.717 194.171Q405.096 192.251 410.537 190.514Q415.978 188.777 421.476 187.227Q426.973 185.676 432.519 184.313Q438.066 182.95 443.656 181.776C529.115 163.114 620.781 181.545 694.096 228.715Q697.567 230.951 700.983 233.271Q704.398 235.591 707.755 237.994Q711.113 240.397 714.41 242.882Q717.708 245.366 720.943 247.931Q724.179 250.496 727.35 253.14Q730.522 255.783 733.628 258.503Q736.734 261.224 739.772 264.02Q742.81 266.815 745.779 269.685Q748.748 272.554 751.645 275.496Q754.543 278.437 757.367 281.449Q760.192 284.46 762.942 287.54Q765.691 290.62 768.365 293.767Q771.038 296.913 773.633 300.124Q776.229 303.335 778.745 306.609Q781.261 309.883 783.695 313.217Q786.13 316.552 788.483 319.945Q790.835 323.338 793.103 326.788Q795.372 330.238 797.555 333.742Q799.738 337.247 801.834 340.804Q803.931 344.361 805.94 347.968Q807.948 351.575 809.868 355.231Q811.787 358.886 813.617 362.588Q815.446 366.289 817.184 370.034Q818.922 373.779 820.568 377.566Q822.213 381.353 823.766 385.179Q825.318 389.005 826.776 392.867Q828.234 396.73 829.597 400.628Q830.959 404.525 832.226 408.455Q833.493 412.385 834.663 416.344Q835.833 420.304 836.906 424.291Q837.978 428.278 838.953 432.29Q839.927 436.302 840.803 440.337C860.099 530.207 844.594 614.62 794.707 691.689C743.701 770.489 672.714 821.74 580.506 841.361Q576.443 842.208 572.36 842.954Q568.277 843.7 564.177 844.345Q560.077 844.99 555.963 845.533Q551.848 846.076 547.721 846.517Q543.594 846.958 539.457 847.297Q535.321 847.635 531.177 847.871Q527.033 848.107 522.885 848.241Q518.737 848.374 514.586 848.405Q510.436 848.435 506.286 848.363Q502.137 848.291 497.99 848.116Q493.843 847.941 489.702 847.664Q485.561 847.386 481.428 847.006Q477.295 846.626 473.172 846.144Q469.05 845.661 464.941 845.077Q460.832 844.493 456.739 843.807Q452.645 843.121 448.57 842.334Q444.495 841.547 440.441 840.66Q436.386 839.772 432.355 838.784Q428.324 837.796 424.318 836.709Q420.313 835.622 416.336 834.435Q412.358 833.249 408.412 831.965Q404.465 830.68 400.551 829.299Q396.638 827.917 392.759 826.439Q388.881 824.961 385.041 823.387Q381.2 821.813 377.4 820.145Q373.599 818.476 369.842 816.714Q366.084 814.952 362.371 813.097Q358.658 811.243 354.992 809.297Q351.326 807.351 347.709 805.315Q344.092 803.279 340.527 801.154Q336.962 799.029 333.451 796.816Q329.94 794.603 326.484 792.304C303.953 777.628 278.661 757.217 261.037 736.993C255.611 730.766 252.794 723.086 248.206 716.357C243.102 708.871 237.447 701.784 232.405 694.238Q226.598 685.667 221.336 676.751Q216.073 667.836 211.374 658.61Q206.676 649.385 202.559 639.885Q198.443 630.386 194.925 620.649C210.842 638.969 223.822 659.935 236.895 680.29C242.724 689.366 248.866 698.221 254.838 707.2C259.973 714.921 264.068 724.135 270.314 730.964C289.941 731.452 309.615 731.072 329.249 731.186L470.751 731.109C469.45 722.213 466.101 713.25 464.179 704.405C459.427 682.546 455.153 660.595 450.256 638.769C448.751 632.058 447.866 623.219 444.846 617.184L191.021 616.08Z"/>
		<path fill="#12464D" d="M581.473 241.614Q587.048 243.622 592.665 245.512C587.281 261.689 582.285 277.987 576.616 294.07C572.874 293.003 569.184 291.732 565.487 290.519Q574.179 266.295 581.473 241.614Z"/>
		<path fill="#12464D" d="M647.983 268.679C651.625 270.242 655.186 272.53 658.677 274.435C654.015 279.949 650.437 286.877 646.695 293.066Q638.88 305.972 630.871 318.758L630.573 319.099C628.676 319.273 622.83 315.085 620.79 313.934C630.302 299.202 639.064 283.784 647.983 268.679Z"/>
		<path fill="#12464D" d="M705.663 309.855C708.505 311.913 711.089 315.698 713.556 318.309C709.308 322.272 705.366 326.674 701.269 330.802Q688.403 343.801 674.977 356.22C672.3 353.583 669.477 351.247 666.532 348.917C679.711 336.118 692.989 323.149 705.663 309.855Z"/>
		<path fill="#12464D" d="M779.028 431.579C780.839 433.541 781.753 439.356 782.505 442.103C765.818 448.489 748.15 452.398 731.656 459.199C730.286 455.135 729.134 450.983 727.906 446.874C734.699 445.381 741.463 442.955 748.165 441.021C758.444 438.055 769.052 435.437 779.028 431.579Z"/>
		<path fill="#12464D" d="M442.912 241.126C444.129 242.492 457.034 286.214 458.512 290.976C454.713 292.005 450.953 293.27 447.19 294.427C444.666 291.517 434.49 252.395 431.478 244.867Q437.133 242.807 442.912 241.126Z"/>
		<path fill="#12464D" d="M748.892 365.91L749.982 366.105C752.469 368.71 754.375 372.042 756.364 375.047C741.048 383.96 725.419 393.072 710.613 402.799C707.487 399.792 705.268 395.888 703.103 392.169C718.996 384.817 733.748 374.695 748.892 365.91Z"/>
		<path fill="#12464D" d="M375.008 266.957C378.172 269.815 398.064 306.963 402.084 314.071C398.806 316 395.668 318.07 392.292 319.84L391.954 319.818C390.324 318.384 368.774 279.484 365.342 273.599C368.404 271.21 371.785 269.128 375.008 266.957Z"/>
		<path fill="#12464D" d="M317.972 309.865C321.768 312.449 325.602 317.205 328.988 320.486C338.468 329.673 348.232 338.73 357.264 348.354C354.627 351.191 351.8 353.881 349.062 356.622C341.203 348.941 333.166 341.46 325.24 333.849C320.259 329.067 314.856 322.777 308.993 319.136C311.895 315.951 314.924 312.909 317.972 309.865Z"/>
		<path fill="#12464D" d="M273.403 366.019C279.499 368.941 285.352 372.684 291.211 376.075L321.081 393.456C318.769 396.797 316.561 400.054 314.753 403.699C309.367 400.094 303.339 397.067 297.706 393.843C287.551 388.031 277.423 382.082 267.025 376.714C268.821 372.983 271.046 369.418 273.403 366.019Z"/>
		<path fill="#12464D" d="M731.084 563.198C740.592 565.302 749.979 568.957 759.298 571.817C767.774 574.418 777.105 576.328 785.206 579.885C783.975 583.538 782.899 587.258 781.756 590.941C763.714 585.556 745.808 579.59 727.643 574.639Q729.448 568.944 731.084 563.198Z"/>
		<path fill="#12464D" d="M242.273 431.455C259.908 436.833 278.033 440.793 295.771 445.878L292.36 458.088C286.479 455.801 279.898 454.367 273.8 452.678Q256.645 447.762 239.289 443.609L242.273 431.455Z"/>
		<path fill="#12464D" d="M291.418 563.042L292.199 563.018C294.16 565.278 294.938 571.535 295.726 574.586C277.378 579.656 259.397 586.26 241.118 591.625L240.411 591.435C238.496 589.486 237.466 582.804 236.638 580.003C242.276 577.935 248.317 576.54 254.077 574.775Q272.8 569.077 291.418 563.042Z"/>
		<path fill="#12464D" d="M501.999 227.063L522.239 227.211C522.743 251.939 522.483 276.723 522.478 301.457Q512.265 301.445 502.057 301.764L501.999 227.063Z"/>
		<path fill="#12464D" d="M723.425 502.075L796.761 502.048C796.973 509.376 796.896 516.724 796.916 524.055Q760.198 524.415 723.479 524.092L723.425 502.075Z"/>
		<path fill="#12464D" d="M227.938 502.578L307.198 502.663L307.178 523.598L228.04 523.46Q227.911 513.019 227.938 502.578Z"/>
		<path fill="#721D2A" d="M573.847 616.716Q665.992 617.285 758.13 616.098C781.832 615.851 805.691 616.587 829.365 615.726C819.633 627.88 811.252 640.961 802.534 653.847Q776.652 691.565 753.417 730.969L616.478 730.53C593.606 730.445 570.473 729.6 547.626 730.352C547.614 727.075 548.094 722.711 546.269 719.891C544.969 716.262 545.894 642.38 545.608 631.678Q548.704 631.62 551.798 631.494C550.408 630.507 548.368 631.337 546.717 630.641C546.026 630.349 546.031 629.841 545.767 629.198C545.851 628.811 545.762 628.339 546.019 628.038C547.473 626.333 558.121 623.243 561.019 621.514C563.108 620.268 564.731 618.389 566.711 617.004C568.901 615.473 571.443 616.25 573.847 616.716Z"/>
		<path fill="#FCFCFA" d="M551.798 631.494L559.632 631.747C558.212 642.708 559.093 654.364 559.003 665.433L579.663 665.44C579.61 654.295 579.858 643.033 579.418 631.901C583.796 631.796 588.144 631.737 592.523 631.882L592.377 688.63C592.348 698.945 591.918 709.404 592.49 719.7L578.988 719.508C580.859 712.761 579.572 686.295 579.655 677.484L559.003 677.5C559.025 691.614 558.704 705.853 559.408 719.95C555.062 719.96 550.599 720.187 546.269 719.891C544.969 716.262 545.894 642.38 545.608 631.678Q548.704 631.62 551.798 631.494Z"/>
		<path fill="#FCFCFA" d="M619.119 631.97C627.538 631.602 638.372 630.633 646.254 633.886C651.764 636.16 655.824 640.159 657.932 645.757C660.449 652.445 660.17 660.905 656.969 667.327C653.98 673.321 649.44 675.998 643.349 678.023C650.1 691.512 655.832 705.711 661.978 719.496L646.946 719.466L645.372 714.813Q638.622 698.055 632.581 681.029C631.954 693.648 632.204 706.846 633.201 719.433Q626.261 719.475 619.331 719.117C619.897 712.783 619.653 706.295 619.653 699.938L619.645 669.159C619.646 661.224 620.916 638.268 619.119 631.97Z"/>
		<path fill="#721D2A" d="M633.077 643.449C636.455 643.37 639.413 643.505 642.119 645.767C644.891 648.083 646.137 651.361 646.36 654.907C646.648 659.508 645.296 662.998 642.227 666.318C639.523 668.445 636.479 669.434 633.267 670.503C632.848 661.527 633.105 652.439 633.077 643.449Z"/>
		<path fill="#FCFCFA" d="M709.339 630.133C716.197 629.777 722.028 630.685 727.842 634.657C737.075 640.967 741.95 651.818 743.752 662.557C746.265 677.533 744.473 695.502 735.355 708.112C730.337 715.053 724.09 719.052 715.612 720.435C708.745 721.013 702.53 719.51 696.911 715.391C687.634 708.59 682.607 696.78 680.898 685.71C678.664 671.236 680.605 653.628 689.638 641.613C694.562 635.063 701.292 631.299 709.339 630.133Z"/>
		<path fill="#721D2A" d="M709.78 642.038C712.475 641.89 715.053 642.063 717.552 643.18C722.746 645.502 725.977 650.345 727.99 655.483C732.682 667.46 732.691 685.351 727.24 697.09C724.603 702.77 720.78 706.155 714.968 708.195C711.946 708.364 709.568 708.155 706.853 706.713C701.366 703.798 698.296 698.064 696.438 692.365C692.35 679.832 692.074 663.535 698.466 651.672C701.021 646.928 704.574 643.547 709.78 642.038Z"/>
		<path fill="#12464D" d="M501.593 186.286C534.149 183.527 580.993 191.626 611.952 201.85Q615.767 203.094 619.549 204.43Q623.332 205.767 627.081 207.196Q630.83 208.625 634.543 210.146Q638.256 211.667 641.93 213.278Q645.605 214.889 649.239 216.59Q652.872 218.291 656.464 220.08Q660.054 221.87 663.6 223.747Q667.146 225.624 670.645 227.587Q674.144 229.55 677.594 231.599Q681.044 233.648 684.442 235.78Q687.841 237.913 691.186 240.128Q694.531 242.343 697.821 244.64Q701.111 246.936 704.343 249.313Q707.576 251.689 710.749 254.145Q713.922 256.6 717.035 259.132Q720.147 261.664 723.196 264.272Q726.245 266.88 729.229 269.561Q732.214 272.243 735.131 274.997Q738.049 277.751 740.898 280.576Q743.747 283.401 746.526 286.295Q749.305 289.189 752.012 292.15Q754.72 295.111 757.353 298.137Q759.987 301.164 762.546 304.254Q765.105 307.345 767.587 310.497Q770.069 313.649 772.474 316.861Q774.878 320.073 777.203 323.343Q779.527 326.613 781.771 329.939Q784.015 333.265 786.177 336.645Q788.338 340.025 790.417 343.457Q792.495 346.889 794.488 350.371Q796.481 353.853 798.388 357.383Q800.296 360.912 802.116 364.488C839.052 438.256 848.91 531.197 822.671 610.05Q810.104 609.947 797.541 610.285C806.349 583.755 810.588 557.079 812.204 529.254C816.969 447.212 788.851 371.741 734.466 310.704Q732.294 308.28 730.069 305.904Q727.845 303.528 725.569 301.201Q723.293 298.874 720.967 296.598Q718.641 294.321 716.266 292.095Q713.891 289.87 711.468 287.696Q709.045 285.523 706.576 283.403Q704.106 281.283 701.591 279.217Q699.076 277.151 696.516 275.141Q693.957 273.13 691.354 271.176Q688.751 269.221 686.106 267.324Q683.461 265.427 680.776 263.588Q678.091 261.749 675.366 259.969Q672.641 258.189 669.878 256.468Q667.115 254.748 664.315 253.088Q661.515 251.428 658.68 249.83Q655.845 248.231 652.975 246.695Q650.106 245.158 647.204 243.685Q644.302 242.212 641.368 240.802Q638.434 239.392 635.471 238.046Q632.507 236.7 629.515 235.419Q626.523 234.139 623.503 232.923Q620.484 231.708 617.439 230.559Q614.394 229.409 611.324 228.327Q608.255 227.244 605.162 226.228Q602.07 225.213 598.956 224.265Q595.843 223.317 592.709 222.437Q589.575 221.557 586.423 220.745Q583.271 219.934 580.102 219.191Q576.933 218.448 573.749 217.775Q570.565 217.101 567.366 216.497Q564.168 215.893 560.957 215.359Q557.747 214.825 554.525 214.361C544.12 212.818 533.623 212.166 523.13 211.559C490.219 211.043 460.692 214.335 429.012 223.45Q425.436 224.508 421.887 225.653Q418.338 226.798 414.818 228.03Q411.298 229.262 407.81 230.58Q404.321 231.898 400.866 233.301Q397.411 234.704 393.991 236.191Q390.571 237.679 387.189 239.249Q383.807 240.82 380.464 242.473Q377.122 244.127 373.82 245.861Q370.519 247.596 367.262 249.411Q364.004 251.226 360.792 253.121Q357.58 255.015 354.415 256.988Q351.25 258.961 348.135 261.011Q345.02 263.06 341.956 265.186Q338.892 267.311 335.88 269.512Q332.869 271.712 329.913 273.985Q326.957 276.258 324.057 278.603Q321.158 280.948 318.317 283.364Q315.475 285.779 312.694 288.263Q309.913 290.748 307.194 293.3Q304.475 295.852 301.819 298.469Q299.163 301.087 296.572 303.769Q293.981 306.452 291.457 309.196Q288.932 311.941 286.476 314.747Q284.02 317.553 281.633 320.419Q279.246 323.284 276.93 326.207Q274.615 329.13 272.371 332.109Q270.128 335.088 267.958 338.121Q265.789 341.154 263.694 344.239Q261.6 347.325 259.581 350.461Q257.563 353.596 255.622 356.781Q253.681 359.965 251.819 363.196Q249.957 366.427 248.175 369.703C217.109 425.918 205.579 493.382 214.382 556.858C216.888 574.932 221.348 592.515 226.404 610.016Q213.87 609.992 201.337 609.802C192.854 585.466 188.151 559.237 186.72 533.521Q186.461 529.456 186.303 525.386Q186.145 521.317 186.089 517.244Q186.033 513.172 186.078 509.099Q186.124 505.026 186.271 500.956Q186.418 496.886 186.667 492.82Q186.915 488.755 187.265 484.697Q187.616 480.639 188.067 476.592Q188.518 472.544 189.07 468.508Q189.622 464.473 190.275 460.453Q190.928 456.433 191.681 452.43Q192.433 448.427 193.286 444.444Q194.138 440.462 195.09 436.501Q196.042 432.541 197.092 428.606Q198.142 424.671 199.29 420.763Q200.438 416.855 201.684 412.977Q202.929 409.1 204.27 405.254Q205.612 401.408 207.049 397.598Q208.487 393.787 210.019 390.013Q211.55 386.239 213.176 382.504Q214.802 378.77 216.52 375.077Q218.238 371.385 220.048 367.736Q221.858 364.087 223.759 360.485Q225.659 356.883 227.649 353.329Q229.639 349.775 231.717 346.272Q233.795 342.769 235.959 339.319Q238.124 335.869 240.374 332.474Q242.624 329.079 244.958 325.741Q247.292 322.404 249.709 319.125Q252.126 315.847 254.624 312.63Q257.121 309.413 259.699 306.259Q262.276 303.105 264.931 300.017Q267.586 296.928 270.318 293.907Q273.472 290.369 276.73 286.926Q279.987 283.482 283.346 280.137Q286.704 276.792 290.16 273.548Q293.616 270.304 297.167 267.164Q300.717 264.024 304.359 260.991Q308.002 257.957 311.732 255.033Q315.463 252.109 319.278 249.297Q323.094 246.485 326.991 243.787Q330.889 241.089 334.864 238.508Q338.84 235.927 342.89 233.465Q346.941 231.003 351.062 228.662Q355.184 226.321 359.373 224.103Q363.562 221.885 367.816 219.793Q372.069 217.701 376.382 215.735Q380.695 213.77 385.065 211.933Q389.435 210.096 393.857 208.39C403.279 204.697 412.765 201.117 422.525 198.41C448.543 191.194 474.684 187.715 501.593 186.286Z"/>
		<path fill="#721D2A" d="M470.083 298.177C499.062 306.209 526.697 325.061 547.374 346.672C569.78 370.09 576.639 390.675 575.913 422.536C585.938 408.179 586.715 388.752 584.957 371.864Q585.34 372.434 585.713 373.011C606.827 405.676 619.849 447.691 611.414 486.577C606.624 508.656 594.737 526.636 575.631 538.904C568.646 538.887 554.334 536.007 547.614 533.718L546.908 533.522C545.169 533.519 543.565 533.653 541.957 532.881C538.742 527.643 516.01 482.711 515.439 479.064C516.069 478.548 516.652 478.222 517.393 477.899L518.263 477.525C518.685 474.085 516.129 467.174 514.843 463.9C514.251 462.392 514.092 461.766 512.524 461.155C507.018 459.011 497.81 464.295 492.752 466.567C494.951 473.749 497.568 480.825 499.323 488.134L505.919 485.232C508.789 492.061 512.602 498.598 516.022 505.172Q523.041 518.771 529.705 532.547C516.937 531.763 504.853 531.261 492.046 532.148C488.658 532.383 485.196 532.397 481.862 533.076C477.568 533.914 473.169 533.788 468.904 534.834C458.253 537.482 446.656 536.956 436.166 540.375C421.871 515.864 408.086 490.323 407.81 461.197C407.563 435.14 417.421 416.578 435.419 398.32C436.547 405.911 438.331 410.642 442.765 417.014C440.246 382.373 470.199 364.944 477.33 336.949C480.889 322.977 477.297 310.287 470.083 298.177Z"/>
		<path fill="#EB7F2C" d="M458.2 455.477C457.793 423.285 490.483 410.647 500.639 384.231C505.006 372.874 502.14 360.219 497.404 349.445C500.176 350.876 502.838 352.359 505.389 354.161C519.293 363.984 529.405 379.034 533.938 395.379C535.279 400.214 535.939 405.222 536.812 410.158C541.115 404.388 543.847 399.658 545.82 392.665Q547.059 394.71 548.213 396.804C558.713 416.026 566.498 447.914 560.067 469.435C569.826 463.585 575.675 456.507 580.701 446.328C581.682 448.937 582.578 451.537 583.22 454.253C587.659 473.038 582.084 493.631 572.147 509.735C567.758 516.847 555.958 531.718 547.614 533.718L546.908 533.522C545.169 533.519 543.565 533.653 541.957 532.881C538.742 527.643 516.01 482.711 515.439 479.064C516.069 478.548 516.652 478.222 517.393 477.899L518.263 477.525C518.685 474.085 516.129 467.174 514.843 463.9C514.251 462.392 514.092 461.766 512.524 461.155C507.018 459.011 497.81 464.295 492.752 466.567C494.951 473.749 497.568 480.825 499.323 488.134L505.919 485.232C508.789 492.061 512.602 498.598 516.022 505.172Q523.041 518.771 529.705 532.547C516.937 531.763 504.853 531.261 492.046 532.148C488.658 532.383 485.196 532.397 481.862 533.076C477.568 533.914 473.169 533.788 468.904 534.834C464.521 532.646 460.691 528.021 457.695 524.243C439.643 501.481 437.917 471.746 441.035 444.039C446.481 448.281 452.347 451.833 458.2 455.477Z"/>
		<path fill="#FCFCFA" d="M487.311 498.469C480.67 482.512 479.339 469.638 486.081 453.374C493.05 436.562 506.15 424.58 514.153 408.84C521.21 423.497 519.673 437.247 516.957 452.769C526.372 448.24 530.657 445.514 537.215 437.116C539.157 455.332 537.973 463.33 530.671 480.281C536.417 476.618 541.174 472.632 545.548 467.397C550.841 485.864 546.38 501.214 539.443 518.489C541.614 523.689 543.986 528.697 546.908 533.522C545.169 533.519 543.565 533.653 541.957 532.881C538.742 527.643 516.01 482.711 515.439 479.064C516.069 478.548 516.652 478.222 517.393 477.899L518.263 477.525C518.685 474.085 516.129 467.174 514.843 463.9C514.251 462.392 514.092 461.766 512.524 461.155C507.018 459.011 497.81 464.295 492.752 466.567C494.951 473.749 497.568 480.825 499.323 488.134L505.919 485.232C508.789 492.061 512.602 498.598 516.022 505.172Q523.041 518.771 529.705 532.547C516.937 531.763 504.853 531.261 492.046 532.148C488.658 532.383 485.196 532.397 481.862 533.076C481.808 532.927 481.757 532.776 481.698 532.628C480.162 528.718 476.638 525.895 474.363 522.404C465.791 509.25 462.87 494.609 466.63 479.329C472.447 487.69 478.117 493.832 487.311 498.469Z"/>
		<path fill="#12464D" d="M492.752 466.567C497.81 464.295 507.018 459.011 512.524 461.155C514.092 461.766 514.251 462.392 514.843 463.9C516.129 467.174 518.685 474.085 518.263 477.525L517.393 477.899C516.652 478.222 516.069 478.548 515.439 479.064C516.01 482.711 538.742 527.643 541.957 532.881C543.565 533.653 545.169 533.519 546.908 533.522L547.614 533.718C554.334 536.007 568.646 538.887 575.631 538.904C580.259 540.329 592.628 543.31 594.94 547.934C597.188 552.43 595.933 569.569 594.096 574.444C593.278 576.615 591.393 577.684 589.351 578.559C586.133 579.937 582.56 580.754 579.192 581.681C577.406 593.183 574.614 605.153 573.847 616.716C571.443 616.25 568.901 615.473 566.711 617.004C564.731 618.389 563.108 620.268 561.019 621.514C558.121 623.243 547.473 626.333 546.019 628.038C545.762 628.339 545.851 628.811 545.767 629.198C546.031 629.841 546.026 630.349 546.717 630.641C548.368 631.337 550.408 630.507 551.798 631.494Q548.704 631.62 545.608 631.678C545.894 642.38 544.969 716.262 546.269 719.891C548.094 722.711 547.614 727.075 547.626 730.352C544.1 757.75 538.155 789.846 530.107 816.035C590.816 813.069 647.082 791.796 696.081 755.971C704.364 749.915 711.837 742.997 719.795 736.559Q732.693 736.856 745.594 736.763C742.054 742.091 735.669 747.248 731.055 751.8C691.144 791.173 632.698 819.321 578.053 830.337Q574.076 831.166 570.08 831.895Q566.083 832.624 562.07 833.253Q558.057 833.883 554.029 834.411Q550.001 834.94 545.962 835.368Q541.922 835.796 537.873 836.122Q533.824 836.449 529.768 836.675Q525.712 836.9 521.651 837.025Q517.591 837.149 513.529 837.171Q509.467 837.194 505.405 837.115Q501.344 837.036 497.285 836.856Q493.227 836.676 489.174 836.394Q485.122 836.113 481.078 835.73Q477.033 835.347 473 834.863Q468.967 834.38 464.947 833.795Q460.927 833.211 456.922 832.526Q452.918 831.842 448.932 831.057Q444.947 830.273 440.982 829.389Q437.017 828.505 433.075 827.523Q429.133 826.54 425.217 825.459Q421.301 824.379 417.414 823.2Q413.526 822.022 409.669 820.747Q405.812 819.472 401.988 818.101Q398.164 816.73 394.376 815.264Q390.587 813.798 386.836 812.238Q383.086 810.678 379.375 809.024Q375.665 807.371 371.997 805.625Q368.328 803.879 364.705 802.043Q361.082 800.206 357.506 798.279Q353.929 796.352 350.402 794.337Q346.875 792.321 343.4 790.218Q339.924 788.115 336.502 785.926Q333.08 783.737 329.714 781.463C310.335 768.555 293.14 752.788 276.036 737.082C286.248 737.105 296.565 737.055 306.766 737.584C312.924 743.699 319.984 749.004 326.802 754.362C364.745 784.175 407.73 805.03 455.284 814.068C465.745 816.056 476.605 817.899 487.271 818.198C481.637 789.233 475.841 760.173 470.751 731.109C469.45 722.213 466.101 713.25 464.179 704.405C459.427 682.546 455.153 660.595 450.256 638.769C448.751 632.058 447.866 623.219 444.846 617.184C441.75 607.637 439.643 590.353 437.775 579.892L437.289 579.948L436.477 580.031C435.048 580.184 433.601 580.388 432.161 580.285C427.663 579.964 425.112 577.491 422.246 574.36C420.498 567.165 420.893 558.432 420.286 550.975Q420.881 549.783 421.537 548.623C424.71 543.123 430.501 541.947 436.166 540.375C446.656 536.956 458.253 537.482 468.904 534.834C473.169 533.788 477.568 533.914 481.862 533.076C485.196 532.397 488.658 532.383 492.046 532.148C504.853 531.261 516.937 531.763 529.705 532.547Q523.041 518.771 516.022 505.172C512.602 498.598 508.789 492.061 505.919 485.232L499.323 488.134C497.568 480.825 494.951 473.749 492.752 466.567Z"/>
		<path fill="#FCFCFA" d="M458.115 634.883L458.548 635.229C461.385 641.443 461.767 650.271 462.913 656.999C465.976 674.973 471.03 699.167 471.401 717.125C469.155 714.992 458.88 643.317 458.115 634.883Z"/>
		<path fill="#FCFCFA" d="M478.991 730.294C480.23 731.051 480.922 731.812 481.27 733.216C484.249 745.208 485.92 757.861 488.363 770.004Q492.592 790.068 496.2 810.253C497.028 815.136 498.109 820.138 498.547 825.07C498.661 826.35 498.576 827.008 497.918 828.105C496.707 827.56 496.245 827.555 495.8 826.214C494.83 823.289 494.654 819.451 494.062 816.376Q491.136 801.877 488.521 787.319L481.664 752.261C480.501 746.329 478.935 740.186 478.339 734.178C478.182 732.597 478.287 731.718 478.991 730.294Z"/>
		<path fill="#FCFCFA" d="M453.158 574.698C454.301 574.548 454.548 574.471 455.645 574.941C455.391 576.123 455.582 575.682 454.97 576.734C453.684 578.946 457.51 605.47 457.631 610.861C469.49 610.97 481.521 613.385 493.464 613.864C508.251 614.459 523.334 613.181 538.036 614.441L524.615 616.498C501.011 620.646 475.531 621.265 451.776 618.294C448.378 604.646 447.269 590.187 443.1 576.785C446.458 575.873 449.711 575.177 453.158 574.698Z"/>
		<path fill="#FCFCFA" d="M529.48 730.26C532.79 730.164 536.105 730.139 539.416 730.081C536.861 741.461 535.448 753.158 533.532 764.661C531.762 775.293 529.507 785.857 527.314 796.409C525.356 805.831 523.565 815.117 520.022 824.114L516.301 828.317C510.506 802.03 519.533 758.431 522.091 730.4L529.48 730.26Z"/>
		<path fill="#FCFCFA" d="M501.266 631.574C508.093 630.954 513.702 631.928 519.76 635.232L516.924 648.067C514.009 646.343 511.262 644.742 507.86 644.169C504.054 643.528 500.327 644.316 497.239 646.671C491.881 650.756 489.738 658.348 488.799 664.749C487.192 675.706 487.229 691.733 494.411 700.933C497.213 704.523 501.106 707.089 505.685 707.624C511.429 708.294 516.341 706.02 520.726 702.568C521.54 704.26 522.272 706.003 523.04 707.718L525.566 714.79C521.803 716.628 518.038 718.332 513.957 719.342C506.193 721.264 498.785 720.069 492.005 715.843C483.372 710.461 478.575 701.446 476.466 691.711C473.224 676.749 474.362 657.13 483.026 644.034C487.426 637.384 493.453 633.22 501.266 631.574Z"/>
		<path fill="#FCFCFA" d="M502.457 538.75Q504.031 538.677 505.607 538.649C520.446 538.372 579.033 541.55 588.153 551.099C590.619 553.682 588.502 567.793 588.24 571.928C582.001 573.84 576.842 575.142 572.115 579.917C571.873 589.694 569.561 599.908 567.734 609.487C562.628 608.804 558.12 609.071 553.016 609.736C554.609 598.381 555.894 586.968 557.804 575.66C560.56 576.295 569.117 580.071 571.009 579.645C571.434 579.055 571.886 578.483 572.307 577.891C574.284 575.107 578.048 574.694 580.757 572.64L580.85 571.863C578.976 570.549 576.646 570.19 574.455 569.638C540.665 563.138 507.674 561.035 473.429 564.925C459.248 566.536 446.051 568.792 432.476 573.376C431.142 572.982 430.314 572.675 429.179 571.821C426.632 567.471 427.378 556.677 426.955 551.171C445.771 541.497 481.295 539.754 502.457 538.75Z"/>
		<path fill="#12464D" d="M498.6 543.205C505.382 542.379 512.983 542.762 519.822 543.101C543.187 544.261 562.632 547.939 585.24 553.202C585.106 553.264 584.97 553.325 584.836 553.389L584.168 553.712C580.02 555.684 578.352 557.83 575.84 561.524C579.683 563.013 582.82 565.28 586.104 567.707C567.202 561.871 545.339 560.918 525.647 560.486C502.368 560.545 479.456 560.037 456.235 562.293C448.458 563.049 440.393 563.76 432.92 566.127Q436.742 563.487 440.447 560.685C438.412 557.71 436.047 555.226 433.486 552.705C442.722 552.009 451.883 549.218 461.005 547.621C473.473 545.439 485.996 544.225 498.6 543.205Z"/>
	</g>
</svg>
